<?xml version="1.0" encoding="utf-8"?>
<!-- Generator: Adobe Illustrator 17.1.0, SVG Export Plug-In . SVG Version: 6.00 Build 0)  -->
<!DOCTYPE svg PUBLIC "-//W3C//DTD SVG 1.1//EN" "http://www.w3.org/Graphics/SVG/1.1/DTD/svg11.dtd">
<svg version="1.1" id="Capa_1" xmlns="http://www.w3.org/2000/svg" xmlns:xlink="http://www.w3.org/1999/xlink" x="0px" y="0px"
	 viewBox="0 0 841.9 595.3" enable-background="new 0 0 841.9 595.3" xml:space="preserve">
<g>
	<g>
		<path fill="#175090" d="M558.9,170.1H283c-16.2,0-29.4,13.2-29.4,29.4v196.2c0,16.1,13.2,29.4,29.4,29.4h276
			c16.1,0,29.4-13.2,29.4-29.4V199.5C588.4,183.4,575.2,170.1,558.9,170.1z M554.9,189.7L421.5,323L287.1,189.7H554.9z M273.2,391.6
			V203.5l94.5,93.7L273.2,391.6z M287,405.6l94.6-94.6l33.1,32.8c3.8,3.8,10,3.7,13.8-0.1l32.3-32.3l94.1,94.1L287,405.6L287,405.6z
			 M568.7,391.6l-94.1-94.1l94.1-94.1V391.6z"/>
	</g>
</g>
</svg>
