<?xml version="1.0" encoding="utf-8"?>
<!-- Generator: Adobe Illustrator 17.1.0, SVG Export Plug-In . SVG Version: 6.00 Build 0)  -->
<!DOCTYPE svg PUBLIC "-//W3C//DTD SVG 1.1//EN" "http://www.w3.org/Graphics/SVG/1.1/DTD/svg11.dtd">
<svg version="1.1" id="Capa_1" xmlns="http://www.w3.org/2000/svg" xmlns:xlink="http://www.w3.org/1999/xlink" x="0px" y="0px"
	 viewBox="0 0 841.9 595.3" enable-background="new 0 0 841.9 595.3" xml:space="preserve">
		<path fill="#002c5f" d="M580.3,383l-38.9-38.9c-10.7-10.7-28.1-10.7-38.9,0l-17.7,17.6c-8.2,8.2-21.3,8.2-29.5,0L378.8,285
			c-8.2-8.2-8.2-21.3,0-29.5c2.8-2.8,11.1-11.1,17.6-17.6c10.7-10.7,10.8-28.1,0-38.9l-38.9-38.7c-10.7-10.7-28.1-10.7-38.8-0.1
			c-8,7.9-10.6,10.5-14.2,14c-38.7,38.7-38.7,101.6,0,140.3L425.9,436c38.7,38.7,101.5,38.8,140.3,0l14.1-14.1
			C591,411.1,591,393.7,580.3,383z M331.7,173.3c3.6-3.6,9.4-3.6,13,0l38.9,38.7c3.6,3.6,3.6,9.3,0,13l-6.5,6.5l-51.8-51.8
			L331.7,173.3z M438.9,423L317.5,301.6c-29.9-29.9-31.6-76.9-5-108.8l51.7,51.7c-13.6,15.4-13,38.8,1.7,53.5l76.6,76.7l0,0
			c14.7,14.7,38.2,15.3,53.5,1.7l51.7,51.7C515.9,454.5,469,453.1,438.9,423z M567.3,408.9l-6.5,6.5L509,363.5l6.5-6.5
			c3.6-3.6,9.4-3.6,13,0l38.9,38.9C570.9,399.5,570.9,405.3,567.3,408.9z"/>
</svg>
