<?xml version="1.0" encoding="utf-8"?>
<!-- Generator: Adobe Illustrator 17.1.0, SVG Export Plug-In . SVG Version: 6.00 Build 0)  -->
<!DOCTYPE svg PUBLIC "-//W3C//DTD SVG 1.1//EN" "http://www.w3.org/Graphics/SVG/1.1/DTD/svg11.dtd">
<svg version="1.1" id="Layer_1" xmlns="http://www.w3.org/2000/svg" xmlns:xlink="http://www.w3.org/1999/xlink" x="0px" y="0px"
	 viewBox="0 0 841.9 595.3" enable-background="new 0 0 841.9 595.3" xml:space="preserve">
<g>
	<g>
		<g>
			<path fill="#194f90" stroke="#194f90" stroke-width="2" stroke-miterlimit="10" d="M554.2,180.7H287.7c-8.6,0-15.7,7-15.7,15.7
				v59.5c0,4.2,1.6,8.1,4.6,11.1l16.7,16.7v3.3c0,70.3,57.2,127.6,127.6,127.6S548.5,357.3,548.5,287v-3.3l16.7-16.7
				c3-3,4.6-6.9,4.6-11.1v-59.5C569.8,187.8,562.8,180.7,554.2,180.7z M559.8,250h-27c-2.8,0-5,2.2-5,5c0,2.8,2.2,5,5,5h25.2
				l-16.7,16.7H341c-2.8,0-5,2.2-5,5s2.2,5,5,5h197.5v0.3c0,64.8-52.7,117.6-117.6,117.6S303.4,351.8,303.4,287v-0.3h16.3
				c2.8,0,5-2.2,5-5s-2.2-5-5-5h-19.2L283.8,260h195.8c2.8,0,5-2.2,5-5c0-2.8-2.2-5-5-5H282.1v-53.6c0-3.1,2.5-5.7,5.7-5.7h266.4
				c3.1,0,5.7,2.5,5.7,5.7V250L559.8,250z"/>
		</g>
	</g>
	<g>
		<g>
			<path fill="#194f90" stroke="#194f90" stroke-width="2" stroke-miterlimit="10" d="M511.5,250h-10.7c-2.8,0-5,2.2-5,5
				c0,2.8,2.2,5,5,5h10.7c2.8,0,5-2.2,5-5C516.5,252.3,514.3,250,511.5,250z"/>
		</g>
	</g>
	<g>
		<g>
			<path fill="#194f90" stroke="#194f90" stroke-width="2" stroke-miterlimit="10" d="M420.9,303.3c-23.3,0-42.3,19-42.3,42.3
				c0,23.3,19,42.3,42.3,42.3c23.3,0,42.3-19,42.3-42.3C463.2,322.3,444.3,303.3,420.9,303.3z M420.9,377.9
				c-17.8,0-32.3-14.5-32.3-32.3s14.5-32.3,32.3-32.3c17.8,0,32.3,14.5,32.3,32.3C453.2,363.4,438.8,377.9,420.9,377.9z"/>
		</g>
	</g>
	<g>
		<g>
			<path fill="#194f90" stroke="#194f90" stroke-width="2" stroke-miterlimit="10" d="M436.9,340.6c-2.8,0-5,2.2-5,5
				c0,6.1-4.9,11-11,11c-6.1,0-11-4.9-11-11s4.9-11,11-11c2.8,0,5-2.2,5-5c0-2.8-2.2-5-5-5c-11.6,0-21,9.4-21,21
				c0,11.6,9.4,21,21,21c11.6,0,21-9.4,21-21C441.9,342.8,439.7,340.6,436.9,340.6z"/>
		</g>
	</g>
</g>
</svg>
