<?xml version="1.0" encoding="utf-8"?>
<!-- Generator: Adobe Illustrator 17.1.0, SVG Export Plug-In . SVG Version: 6.00 Build 0)  -->
<!DOCTYPE svg PUBLIC "-//W3C//DTD SVG 1.1//EN" "http://www.w3.org/Graphics/SVG/1.1/DTD/svg11.dtd">
<svg version="1.1" id="Layer_1" xmlns="http://www.w3.org/2000/svg" xmlns:xlink="http://www.w3.org/1999/xlink" x="0px" y="0px"
	 viewBox="0 0 841.9 595.3" enable-background="new 0 0 841.9 595.3" xml:space="preserve">
<g>
	<path fill="#D24827" stroke="#D24827" stroke-width="2" stroke-miterlimit="10" d="M492,264.8c-3,0-5.4,2.4-5.4,5.4V404H355.3
		v-10.8c0-3-2.4-5.4-5.4-5.4s-5.4,2.4-5.4,5.4v16.2c0,3,2.4,5.4,5.4,5.4h142c3,0,5.4-2.4,5.4-5.4V270.2
		C497.4,267.2,494.9,264.8,492,264.8z"/>
	<path fill="#D24827" stroke="#D24827" stroke-width="2" stroke-miterlimit="10" d="M513.4,183.8h-47.9c-5.2-4.7-12.1-7.5-19.6-7.5
		h-3c-2.4-9.9-11.4-17.2-22-17.2c-10.6,0-19.6,7.4-22,17.2h-3c-7.5,0-14.4,2.8-19.6,7.5h-47.9c-3,0-5.4,2.4-5.4,5.4v241.5
		c0,3,2.4,5.4,5.4,5.4h184.8c3,0,5.4-2.4,5.4-5.4V189.2C518.8,186.2,516.3,183.8,513.4,183.8z M403.7,187.2c3,0,5.4-2.4,5.4-5.4
		c0-6.5,5.3-11.8,11.8-11.8c6.5,0,11.8,5.3,11.8,11.8c0,3,2.4,5.4,5.4,5.4h7.7c5.2,0,10,2.2,13.3,5.6c0,0.1,0.1,0.1,0.1,0.2
		c4.1,4.3,5.1,9.5,5.2,15.2c0,0.8,0,1.6,0,2.4v2.5h-87.2v-2.5c0-6.6,0.4-12.7,5.2-17.7c0-0.1,0.1-0.1,0.1-0.2
		c3.4-3.5,8.1-5.6,13.3-5.6H403.7z M507.9,425.4h-174V194.6h34.8c0,0,0,0.1,0,0.1c-1.3,3.3-2.1,6.9-2.1,10.5h-16.6
		c-3,0-5.4,2.4-5.4,5.4v139.2c0,3,2.4,5.4,5.4,5.4s5.4-2.4,5.4-5.4V216h11.2v2.5c0,3,2.4,5.4,5.4,5.4h98c3,0,5.4-2.4,5.4-5.4V216
		h11.2v10.8c0,3,2.4,5.4,5.4,5.4c3,0,5.4-2.4,5.4-5.4v-16.2c0-3-2.4-5.4-5.4-5.4h-16.6c-0.1-3.6-0.8-7.2-2.2-10.5c0,0,0-0.1,0-0.1
		h34.8V425.4z"/>
	<path fill="#D24827" stroke="#D24827" stroke-width="2" stroke-miterlimit="10" d="M420.9,362.8c29.1,0,52.8-23.7,52.8-52.8
		c0-29.1-23.7-52.8-52.8-52.8c-29.1,0-52.8,23.7-52.8,52.8C368.2,339.1,391.9,362.8,420.9,362.8z M420.9,268.1
		c23.1,0,41.9,18.8,41.9,41.9c0,23.1-18.8,41.9-41.9,41.9c-23.1,0-41.9-18.8-41.9-41.9C379,286.9,397.8,268.1,420.9,268.1z"/>
	<path fill="#D24827" stroke="#D24827" stroke-width="2" stroke-miterlimit="10" d="M409.9,332.5c1.1,1.1,2.4,1.6,3.8,1.6
		s2.8-0.5,3.8-1.6l28.7-28.7c2.1-2.1,2.1-5.5,0-7.7c-2.1-2.1-5.5-2.1-7.7,0L413.8,321l-10.5-10.5c-2.1-2.1-5.5-2.1-7.7,0
		c-2.1,2.1-2.1,5.5,0,7.7L409.9,332.5z"/>
	<path fill="#D24827" stroke="#D24827" stroke-width="2" stroke-miterlimit="10" d="M349.9,376.9c3,0,5.4-2.4,5.4-5.4
		s-2.4-5.4-5.4-5.4s-5.4,2.4-5.4,5.4S347,376.9,349.9,376.9z"/>
	<path fill="#D24827" stroke="#D24827" stroke-width="2" stroke-miterlimit="10" d="M492,243.1c-3,0-5.4,2.4-5.4,5.4
		c0,3,2.4,5.4,5.4,5.4c3,0,5.4-2.4,5.4-5.4C497.4,245.5,494.9,243.1,492,243.1z"/>
</g>
</svg>
