<?xml version="1.0" encoding="utf-8"?>
<!-- Generator: Adobe Illustrator 17.1.0, SVG Export Plug-In . SVG Version: 6.00 Build 0)  -->
<!DOCTYPE svg PUBLIC "-//W3C//DTD SVG 1.1//EN" "http://www.w3.org/Graphics/SVG/1.1/DTD/svg11.dtd">
<svg version="1.1" id="Layer_1" xmlns="http://www.w3.org/2000/svg" xmlns:xlink="http://www.w3.org/1999/xlink" x="0px" y="0px"
	 viewBox="0 0 841.9 595.3" enable-background="new 0 0 841.9 595.3" xml:space="preserve">
<g>
	<g>
		<g>
			<path fill="#D24827" stroke="#D24827" stroke-miterlimit="10" d="M510.9,296.2c-5.7-22.2-10.6-41.4-0.9-58.7
				c0.8-1.4,0.6-3.1-0.5-4.3c-1.1-1.2-2.9-1.8-4.7-1.6c-1.2,0.2-27.2,4.7-43.9,36.1c-4.5-4.8-11.4-13-17.3-23.8
				c-13.1-24-15.3-48.6-6.7-73.3c0.5-1.5,0-3.2-1.4-4.2c-1.4-1.1-3.3-1.4-5.1-0.8c-0.6,0.2-14.4,4.9-27.5,17.1
				c-12,11.2-25.8,31.1-22.8,62.3c1.6,16.6,1.4,28.2,0.7,36.1c-3.8-11-10.2-19.4-15.8-25.2c-9.6-9.9-19.1-14.6-19.6-14.8
				c-1.6-0.8-3.7-0.7-5.2,0.2c-1.5,0.9-2.3,2.5-2,4.1c5.9,27.2,0.1,42.7-6.1,59c-4.6,12.1-9.3,24.5-9.3,41.9c0,46.2,44,83.7,98,83.7
				s98-37.5,98-83.7C519,328.1,514.7,311.2,510.9,296.2z M457.1,415.1c6.3-6.8,10.1-15.3,10.1-24.6c0-28.2-10.1-51.4-18.6-65.9
				c-9.2-15.8-18.4-24.8-18.8-25.2c-1.8-1.7-4.8-1.9-6.8-0.4c-2,1.5-2.2,4.1-0.5,5.8c0.3,0.3,35,34.8,35,85.7
				c0,17.2-16.4,31.2-36.6,31.2c-20.9,0-36.6-16.5-36.6-31.2c0-7.3,1.9-12.3,3.7-16.1c1-2.1-0.2-4.5-2.7-5.4
				c-2.5-0.9-5.3,0.2-6.3,2.3c-2,4.3-4.4,10.5-4.4,19.2c0,8.8,4.1,17.8,11.2,25c-31.3-11.6-53.3-38.3-53.3-69.2
				c0-16,4.3-27.3,8.8-39.3c5.5-14.6,11.2-29.6,8.2-52.9c10.1,7.7,25,23.4,25,48c0,1.7,1.1,3.1,2.9,3.8c1.8,0.7,3.8,0.4,5.2-0.8
				c2-1.6,11.7-12,7-60.8c-2.2-22.5,4.6-41.2,20-55.7c5.2-4.9,10.6-8.5,14.9-10.9c-7.1,29.1,1.2,53.7,10,69.8
				c10.5,19.2,23.6,30.5,24.1,31c1.2,1,2.8,1.4,4.5,1.1c1.6-0.3,2.9-1.3,3.5-2.6c8.9-20.3,21.7-29.6,30.3-33.9
				c-5.5,17.2-0.8,35.6,4.1,54.9c3.9,15.2,7.9,31,7.9,48.2C509.3,376.8,487.8,403.2,457.1,415.1z"/>
		</g>
	</g>
	<g>
		<g>
			<path fill="#D24827" stroke="#D24827" stroke-miterlimit="10" d="M426.2,329c-2.6-0.5-5.2,0.9-5.8,3.1c-1.4,5.2-3.2,8.9-4.8,11.5
				c-10-10-19.3-10.3-20.5-10.3c-2.7,0-4.9,1.9-4.9,4.1c0,6.1-0.8,11.4-2.7,16.5c-0.8,2.2,0.7,4.5,3.2,5.2c0.5,0.1,0.9,0.2,1.4,0.2
				c2.1,0,4-1.2,4.6-2.9c1.5-4.2,2.5-8.6,2.9-13.4c0.1,0,0.2,0.1,0.3,0.1c2.9,1.3,7.2,4.1,11.8,9.9c0.8,1,2.1,1.7,3.6,1.8
				c1.4,0.1,2.9-0.3,3.9-1.2c0.7-0.6,7.2-6.4,10.7-19.7C430.4,331.7,428.8,329.5,426.2,329z"/>
		</g>
	</g>
</g>
</svg>
