<?xml version="1.0" encoding="utf-8"?>
<!-- Generator: Adobe Illustrator 17.1.0, SVG Export Plug-In . SVG Version: 6.00 Build 0)  -->
<!DOCTYPE svg PUBLIC "-//W3C//DTD SVG 1.1//EN" "http://www.w3.org/Graphics/SVG/1.1/DTD/svg11.dtd">
<svg version="1.1" id="Layer_1" xmlns="http://www.w3.org/2000/svg" xmlns:xlink="http://www.w3.org/1999/xlink" x="0px" y="0px"
	 viewBox="0 0 841.9 595.3" enable-background="new 0 0 841.9 595.3" xml:space="preserve">
<g>
	<path fill="#194f90" stroke="#194f90" stroke-width="2" stroke-miterlimit="10" d="M483.2,342.3c0-4-3.5-7.3-7.8-7.3
		s-7.8,3.3-7.8,7.3c0,24-21,43.6-46.7,43.6c-4.3,0-7.8,3.3-7.8,7.3c0,4,3.5,7.3,7.8,7.3C455.3,400.4,483.2,374.4,483.2,342.3z"/>
	<path fill="#194f90" stroke="#194f90" stroke-width="2" stroke-miterlimit="10" d="M343.1,335.1c0,4-3.5,7.3-7.8,7.3
		s-7.8-3.3-7.8-7.3s3.5-7.3,7.8-7.3S343.1,331,343.1,335.1z"/>
	<path fill="#194f90" stroke="#194f90" stroke-width="2" stroke-miterlimit="10" d="M427.5,169.1c-1.4-2.1-3.9-3.4-6.6-3.4
		c-2.7,0-5.1,1.3-6.6,3.4c-2.2,3.3-55.2,80.9-77.2,135.6c-1.5,3.8,0.5,7.9,4.5,9.4c4,1.4,8.5-0.5,10-4.2
		c17-42.1,54.2-100.2,69.3-123.1c26.6,40.2,77.8,124,77.8,155.6c0,40.1-34.9,72.6-77.8,72.6c-34.8,0-65.6-21.8-75-53
		c-1.2-3.9-5.5-6.1-9.6-5c-4.1,1.1-6.5,5.1-5.4,9c11.3,37.4,48.2,63.6,89.9,63.6c51.5,0,93.4-39.1,93.4-87.2
		C514.4,302.3,449.7,201.5,427.5,169.1z"/>
</g>
</svg>
