<?xml version="1.0" encoding="utf-8"?>
<!-- Generator: Adobe Illustrator 17.1.0, SVG Export Plug-In . SVG Version: 6.00 Build 0)  -->
<!DOCTYPE svg PUBLIC "-//W3C//DTD SVG 1.1//EN" "http://www.w3.org/Graphics/SVG/1.1/DTD/svg11.dtd">
<svg version="1.1" id="Capa_1" xmlns="http://www.w3.org/2000/svg" xmlns:xlink="http://www.w3.org/1999/xlink" x="0px" y="0px"
	 viewBox="0 0 841.9 595.3" enable-background="new 0 0 841.9 595.3" xml:space="preserve">
<g>
	<path fill="#175090" stroke="#175090" stroke-width="8" stroke-miterlimit="10" d="M420.9,155.5c-78.4,0-142.2,63.8-142.2,142.2
		s63.8,142.2,142.2,142.2S563.1,376,563.1,297.6S499.3,155.5,420.9,155.5z M420.9,430.3c-73.2,0-132.7-59.5-132.7-132.7
		S347.8,165,420.9,165s132.7,59.5,132.7,132.7S494.1,430.3,420.9,430.3z"/>
	<path fill="#175090" stroke="#175090" stroke-width="8" stroke-miterlimit="10" d="M420.9,183.9c-2.6,0-4.7,2.1-4.7,4.7v109h-71.1
		c-2.6,0-4.7,2.1-4.7,4.7s2.1,4.7,4.7,4.7h75.8c2.6,0,4.7-2.1,4.7-4.7V188.7C425.7,186,423.6,183.9,420.9,183.9z"/>
</g>
</svg>
